<?xml version="1.0" encoding="UTF-8"?>
<svg width="1384px" height="433px" viewBox="0 0 1384 433" version="1.1" xmlns="http://www.w3.org/2000/svg" xmlns:xlink="http://www.w3.org/1999/xlink">
    <!-- Generator: Sketch 54.1 (76490) - https://sketchapp.com -->
    <title>glasses</title>
    <desc>Created with Sketch.</desc>
    <g id="Page-1" stroke="none" stroke-width="1" fill="none" fill-rule="evenodd">
        <g id="symbols" transform="translate(0.600000, 0.000000)" fill-rule="nonzero">
            <g id="glasses-opaque-lense">
                <path d="M303.4,431.9 C231.3,429.9 177.6,411.5 143.4,377 C117.2,350.6 107.3,325.9 87.8,238.8 C76.2,186.4 72.8,174.8 62.5,150.8 C46.6,113.5 40.5,103.2 20,78 C11.7,67.8 5.8,58.1 3.6,51 C1.2,43.5 -1.1,8.2 0.6,6.5 C3.5,3.5 87.1,0 151.8,0 C204.1,0 330.7,3.9 399.9,7.6 C462.8,10.9 524.9,16.2 576.9,22.5 C608.4,26.3 616.1,26.9 646.1,27.9 C698.8,29.7 748.5,27 811.9,19 C853.7,13.7 878.9,11.6 971.4,5.4 C1042.9,0.6 1072.1,0.2 1148.4,2.8 C1181.1,4 1224.8,5.2 1245.4,5.5 C1308.5,6.5 1375.9,9.6 1377.9,11.6 C1380.3,14 1382.6,26.2 1382.5,36.5 C1382.5,51.9 1378.3,65.1 1369.2,79 C1367.5,81.5 1356.2,93.4 1344,105.5 C1320.2,129.1 1317.3,132.9 1311.3,148.5 C1306.8,160.1 1303.3,174.2 1295.4,213.5 C1286.2,259.1 1281.3,280.4 1276,299.2 C1264.9,338.1 1252.4,362.4 1233.3,382.4 C1209.1,407.8 1181.7,417.9 1117.9,425 C1053.4,432.1 982.9,433.6 948.4,428.4 C913.2,423.2 879.7,411.1 855.4,394.9 C843.8,387.2 824.6,368.4 818.2,358.5 C804.1,336.6 787.1,293.2 775.4,248.5 C773.2,240.3 768.7,221.1 765.4,206 C756.3,164.3 751.9,150.9 742.9,136.5 C734.2,122.4 722.5,112.4 709.7,107.9 C693.9,102.3 665.8,106.1 650.7,115.9 C641.9,121.6 634.2,130.8 628.5,142.4 C621.2,157.3 617.2,172.8 607.9,222 C599.8,265 596.8,275.6 584.8,304.3 C571.2,336.9 560.3,356.7 546.3,373.9 C524.4,401.2 497.4,417.8 465.9,423.3 C456.8,425 425.3,428 395.9,430.1 C372.5,431.7 329.2,432.6 303.4,431.9 Z" id="frames" fill="currentColor"></path>
                <path d="M189.975577,344.945829 C187.540988,341.773779 185.624382,339.060438 184.8,337.5 C184.516773,336.933546 184.108206,336.166548 183.640861,335.314381 C176.895201,324.34158 170.492084,311.564015 164.423602,296.963888 C164.092566,296.193103 163.777228,295.455266 163.5,294.8 C162.863841,293.421656 162.311995,291.987104 161.933853,290.824119 C161.346719,289.340391 160.762805,287.83905 160.182102,286.320078 C159.775295,285.893823 159.419056,285.015709 159.400739,284.260442 C158.385888,281.564734 157.380934,278.814614 156.385837,276.009992 C155.216252,272.892971 153.731852,268.535582 152.346927,264.162285 C152.231145,263.808972 152.115502,263.454876 152,263.1 C142.28958,233.342261 135.951997,204.68836 133.179343,178.098756 C132.727399,174.210731 132.429263,170.828007 132.235521,167.20939 C131.987496,163.596316 131.808817,160.02566 131.7,156.5 C130.8,126.2 133.7,108.5 142.6,90.1 C146.9,81.2 148.8,78.5 155.8,71.5 C160.708575,66.5914247 163.911269,63.918143 168.16013,61.4950697 C171.986435,59.0952738 176.085597,57.2224787 180.878542,55.7225178 C188.36078,53.1483617 196.73914,51.8766809 212.1,50.5 C275.6,44.9 331.6,44.7 385.4,50 C396.1,51.1 413,52.6 422.9,53.5 C448.476642,55.76509 468.797947,58.742768 485.261522,62.8323494 C487.200179,63.2288647 488.433104,63.50728 488.6,63.6 C488.667089,63.6503165 488.804504,63.7175114 489.001394,63.798282 C491.612112,64.4993306 494.121436,65.2312758 496.535581,65.995893 C499.08825,66.6778165 501.129051,67.3621513 503.827309,68.5125946 C513.351633,72.0934793 521.245913,76.3092954 528,81.3 C543.823081,92.9953207 552.251021,111.494171 554.237738,139.531115 C555.483115,150.836288 555.350053,160.968481 553.941567,172.173472 C553.333423,178.53688 552.278002,186.061989 550.5,198 C548.124899,213.740863 545.966681,227.231575 543.912978,238.944325 C543.528825,241.320433 543.201175,243.318094 543,244.5 C542.691545,246.266603 542.233691,248.575764 541.67715,251.204785 C537.211408,274.667498 533.062652,290.068975 527.964612,302.730386 C527.658305,303.590036 527.201733,304.679893 526.631459,305.930314 C525.476247,308.61126 524.270206,311.182475 523,313.7 C517.5,324.8 503.1,344.1 493.8,353.1 C473.6,372.4 448.1,381.9 402.9,387 C392.261722,388.188805 379.021788,389.21036 365.125982,389.999524 C361.893885,390.247323 359.146627,390.46027 357.4,390.6 C355.431639,390.738617 349.581918,390.907977 342.145687,391.071858 C326.140037,391.661102 310.660183,391.901855 298.593274,391.697459 C294.769176,391.708249 292.380357,391.680357 292.3,391.6 C292.285973,391.578959 292.25227,391.557427 292.199996,391.535437 C288.620639,391.410108 285.484507,391.232838 282.9,391 C258.6,388.8 239,384.7 228,379.5 C214.32653,373.003966 201.664221,361.514032 189.975577,344.945829 L189.975577,344.945829 Z" id="left-lense" fill="#FFFFFF"></path>
                <path d="M880.842344,341.713351 C878.501965,338.636772 876.668898,335.999352 875.9,334.5 C875,332.9 873.2,329.7 871.8,327.5 C870.718757,325.730693 868.719635,321.908236 866.526791,317.492815 C863.508119,311.573171 860.602416,305.319097 857.831004,298.795613 C857.405908,297.830528 856.979188,296.861791 856.6,296 C855.712922,294.151922 854.443321,290.88304 853.356743,287.728412 C851.903034,283.949027 850.494431,280.09758 849.134592,276.185218 C848.62896,275.087772 847.539568,271.860796 846.503044,268.350508 C835.358091,233.99667 828.01101,195.669761 826.8,160.5 C825.658027,128.810237 831.03657,112.697264 850.088863,92.6836028 C851.661444,90.9399013 853.451283,89.1526124 855.417797,87.3487063 C868.708756,74.803005 886.497937,63.9910746 905,57.1 C923.160544,50.4592041 948.117032,45.9765798 980.927405,43.4965477 C987.725259,42.6412339 998.263426,42.0850172 1013.15933,41.7821628 C1019.59919,41.5646449 1026.27765,41.4041825 1033.2,41.3 C1108.7,40.2 1167.9,45.9 1198.1,57.2 C1200.99307,58.2940184 1203.73542,59.4633956 1206.33137,60.7129813 C1207.97287,61.4921252 1209.56277,62.3184875 1211.10147,63.1921704 C1223.63453,70.2255736 1232.28765,79.5082811 1237.66581,91.7209117 C1237.7107,91.8137804 1237.75543,91.9068098 1237.8,92 C1238.52476,93.5271695 1239.20262,95.2955365 1239.84398,97.3484568 C1240.37493,98.9215177 1240.85992,100.538306 1241.3,102.2 C1245,116 1245.9,124.8 1245.8,148.5 C1245.79247,150.458511 1245.77472,152.370493 1245.74582,154.244324 C1245.69357,162.328141 1245.44496,169.697613 1245,173.5 C1244.95554,173.87323 1244.91097,174.245552 1244.86628,174.61697 C1243.78295,188.99414 1241.649,202.945616 1237.9,221.5 C1233.98117,241.226967 1226.53298,267.792096 1219.07176,289.884442 C1218.38008,292.388873 1217.24716,295.566595 1216.40062,297.59852 C1215.72573,299.497453 1215.05422,301.348117 1214.38873,303.14198 C1214.2816,303.938364 1213.42192,306.369182 1212.3,308.8 C1212.00456,309.498322 1211.69468,310.225499 1211.38976,310.936969 C1210.29252,313.676972 1209.22483,316.212255 1208.2,318.5 C1193.1,352.2 1171.3,372.8 1143.4,379.9 C1135.1,382 1112.3,385.2 1087.9,387.6 C1084.86844,387.893377 1080.26689,388.165502 1074.62186,388.409448 C1073.82169,388.478737 1073.07665,388.542657 1072.4,388.6 C1070.17399,388.805478 1059.32783,389.04614 1046.00266,389.253707 C1035.08784,389.471881 1023.54179,389.610557 1012.96111,389.648726 C997.737059,389.777213 985.532974,389.794145 985.3,389.6 C985.25168,389.55168 984.981548,389.485848 984.533324,389.408146 C981.039146,389.305883 978.254432,389.170803 976.4,389 C931,384.7 907.7,374.8 888.1,351.3 C885.644245,348.343999 883.222385,345.140394 880.842344,341.713351 L880.842344,341.713351 Z" id="right-lense" fill="#FFFFFF"></path>
            </g>
        </g>
    </g>
</svg>
