<svg viewBox="0 0 1384 433" version="1.1" xmlns="http://www.w3.org/2000/svg" xmlns:xlink="http://www.w3.org/1999/xlink">
    <title>Logo</title>
    <g id="Logo" stroke="none" stroke-width="1" fill="none" fill-rule="evenodd">
        <g id="LogoGlasses" fill="currentColor" fill-rule="nonzero">
            <path d="M152.4,0 C204.7,0 331.3,3.9 400.5,7.6 C463.4,10.9 525.5,16.2 577.5,22.5 C592.384615,24.2956044 601.955114,25.3767057 611.075368,26.1231291 L612.345529,26.2251473 C613.07934,26.2829642 613.811691,26.3387146 614.545142,26.3925985 L615.646463,26.4720494 C624.284947,27.0838405 633.251939,27.4517313 646.7,27.9 C699.4,29.7 749.1,27 812.5,19 C854.3,13.7 879.5,11.6 972,5.4 C1043.5,0.6 1072.7,0.2 1149,2.8 C1159.137,3.172 1170.3311,3.544 1181.56643,3.8891881 L1183.74125,3.9556567 C1185.19111,3.9997363 1186.64057,4.0433407 1188.08743,4.0864123 L1190.25552,4.1506129 L1192.1677,4.20666978 C1213.49202,4.82885125 1233.79823,5.32230435 1246,5.5 C1248.524,5.54 1251.05488,5.58336 1253.58818,5.6298752 L1257.38939,5.7019888 C1316.95256,6.86804 1376.62,9.72 1378.5,11.6 C1380.9,14 1383.2,26.2 1383.10315,36.5 C1383.10315,51.9 1378.9,65.1 1369.8,79 C1368.26277,81.2606383 1358.87583,91.2074468 1348.07187,102.038043 L1346.53786,103.572231 C1345.89533,104.213332 1345.24894,104.856383 1344.6,105.5 C1320.8,129.1 1317.9,132.9 1311.9,148.5 C1307.4,160.1 1303.9,174.2 1296,213.5 C1286.8,259.1 1281.9,280.4 1276.6,299.2 C1265.5,338.1 1253,362.4 1233.9,382.4 C1209.7,407.8 1182.3,417.9 1118.5,425 C1054,432.1 983.5,433.6 949,428.4 C913.8,423.2 880.3,411.1 856,394.9 C844.4,387.2 825.2,368.4 818.8,358.5 C804.7,336.6 787.7,293.2 776,248.5 C774.501449,242.914493 771.935749,232.225226 769.409049,221.20445 L769.086789,219.796109 C769.033143,219.561208 768.979535,219.326249 768.925978,219.091278 L768.605312,217.681671 C767.698929,213.689456 766.813043,209.72029 766,206 C756.9,164.3 752.5,150.9 743.5,136.5 C734.8,122.4 723.1,112.4 710.3,107.9 C694.5,102.3 666.4,106.1 651.3,115.9 C642.5,121.6 634.8,130.8 629.1,142.4 C623.99,152.83 620.497,163.554 615.6712,185.9253 L615.254227,187.871629 C613.29248,197.09008 611.104,208.224 608.5,222 C600.4,265 597.4,275.6 585.4,304.3 C571.8,336.9 560.9,356.7 546.9,373.9 C525,401.2 498,417.8 466.5,423.3 C458.46743,424.80059 432.981692,427.314087 406.893001,429.327411 L405.278647,429.451295 C405.009509,429.471832 404.740343,429.492312 404.471169,429.512734 L402.696466,429.646525 L400.922687,429.778525 L399.151009,429.908629 L397.382605,430.036732 C397.08821,430.05791 396.794,430.079 396.5,430.1 C384.160317,430.943739 366.28676,431.592819 348.363814,431.915261 L346.295875,431.951008 L346.295875,431.951008 L343.870262,431.989213 C329.328571,432.206122 315.057143,432.2 304,431.9 C231.9,429.9 178.2,411.5 144,377 C117.8,350.6 107.9,325.9 88.3999999,238.8 C76.7999999,186.4 73.3999999,174.8 63.0999999,150.8 C47.1999999,113.5 41.0999999,103.2 20.5999999,78 C12.2999999,67.8 6.39999987,58.1 4.19999987,51 C1.79999987,43.5 -0.50000013,8.2 1.19999987,6.5 C4.09999987,3.5 87.6999999,0 152.4,0 Z M212.7,50.5 C197.33914,51.8766809 188.96078,53.1483617 181.478542,55.7225178 C176.685597,57.2224787 172.586435,59.0952738 168.76013,61.4950697 C164.511269,63.918143 161.308575,66.5914247 156.4,71.5 C149.4,78.5 147.5,81.2 143.2,90.1 C134.3,108.5 131.4,126.2 132.3,156.5 C132.408817,160.02566 132.587495,163.596316 132.835521,167.20939 C133.029262,170.828007 133.327399,174.210731 133.779343,178.098756 C136.551997,204.68836 142.88958,233.342261 152.6,263.1 C152.715502,263.454876 152.831144,263.808972 152.946927,264.162285 C154.331852,268.535582 155.816252,272.892971 156.985836,276.009992 C157.980934,278.814614 158.985888,281.564734 160.000739,284.260442 C160.019056,285.015709 160.375295,285.893823 160.782101,286.320078 C161.362804,287.83905 161.946719,289.340391 162.533853,290.824119 C162.911994,291.987104 163.463841,293.421656 164.1,294.8 C164.377228,295.455266 164.692565,296.193103 165.023602,296.963888 C171.092084,311.564015 177.495201,324.34158 184.240861,335.314381 C184.708206,336.166548 185.116773,336.933546 185.4,337.5 C186.224382,339.060438 188.140988,341.773779 190.575577,344.945829 C202.264221,361.514032 214.92653,373.003966 228.6,379.5 C239.6,384.7 259.2,388.8 283.5,391 C286.084507,391.232838 289.220639,391.410108 292.799996,391.535437 C292.85227,391.557427 292.885973,391.578959 292.9,391.6 C292.963813,391.663813 294.483395,391.69454 297.021465,391.699084 L298.215135,391.699402 C298.529607,391.699062 298.855853,391.698411 299.193273,391.697459 C311.260183,391.901855 326.740037,391.661102 342.745687,391.071858 C350.181917,390.907977 356.031639,390.738617 358,390.6 C359.746627,390.46027 362.493885,390.247323 365.725982,389.999524 C379.621788,389.21036 392.861722,388.188805 403.5,387 C448.7,381.9 474.2,372.4 494.4,353.1 C503.7,344.1 518.1,324.8 523.6,313.7 C524.870206,311.182475 526.076247,308.61126 527.231459,305.930314 C527.801733,304.679893 528.258305,303.590036 528.564612,302.730386 C533.662651,290.068975 537.811408,274.667498 542.27715,251.204785 C542.833691,248.575764 543.291545,246.266603 543.6,244.5 C543.801175,243.318094 544.128824,241.320433 544.512978,238.944325 C546.566681,227.231575 548.724899,213.740863 551.1,198 C552.878002,186.061989 553.933423,178.53688 554.541567,172.173472 C555.950052,160.968481 556.083115,150.836288 554.837738,139.531115 C552.851021,111.494171 544.423081,92.9953207 528.6,81.3 C521.845913,76.3092954 513.951633,72.0934793 504.427309,68.5125946 C501.729051,67.3621513 499.68825,66.6778165 497.135581,65.995893 C494.721436,65.2312758 492.212112,64.4993306 489.601394,63.798282 C489.404504,63.7175114 489.267089,63.6503165 489.2,63.6 C489.033104,63.50728 487.800179,63.2288647 485.861522,62.8323494 C469.397947,58.742768 449.076641,55.76509 423.5,53.5 C418.55,53.05 411.85,52.45 405.05,51.825 L403.105847,51.6458563 C396.949773,51.0770975 390.840476,50.497619 386,50 C332.2,44.7 276.2,44.9 212.7,50.5 Z M1033.8,41.3 C1026.87765,41.4041825 1020.19919,41.5646449 1013.75932,41.7821628 C998.863426,42.0850172 988.325259,42.6412339 981.527405,43.4965477 C948.717032,45.9765798 923.760544,50.4592041 905.6,57.1 C887.097936,63.9910746 869.308756,74.803005 856.017797,87.3487063 C854.051283,89.1526124 852.261444,90.9399013 850.688863,92.6836028 C831.63657,112.697264 826.258026,128.810237 827.4,160.5 C828.61101,195.669761 835.958091,233.99667 847.103044,268.350508 C848.139568,271.860796 849.228959,275.087772 849.734592,276.185218 C851.094431,280.09758 852.503033,283.949027 853.956743,287.728412 C855.043321,290.88304 856.312922,294.151922 857.2,296 C857.579188,296.861791 858.005908,297.830528 858.431004,298.795613 C861.202416,305.319097 864.108119,311.573171 867.126791,317.492815 C869.319635,321.908236 871.318757,325.730693 872.4,327.5 C872.82,328.16 873.276,328.91 873.7329,329.6798 L874.1888,330.4536 C875.096,332.004 875.96,333.54 876.5,334.5 C877.268898,335.999352 879.101965,338.636772 881.442344,341.713351 C883.822385,345.140394 886.244245,348.343999 888.7,351.3 C908.3,374.8 931.6,384.7 977,389 C978.854432,389.170803 981.639146,389.305883 985.133324,389.408146 C985.581548,389.485848 985.85168,389.55168 985.9,389.6 C986.015234,389.696029 989.059232,389.740417 993.948806,389.745208 L995.953911,389.745088 C1000.72471,389.740334 1006.84943,389.705371 1013.56111,389.648726 C1024.14179,389.610557 1035.68784,389.471881 1046.60266,389.253707 C1059.92783,389.04614 1070.77399,388.805478 1073,388.6 C1073.67665,388.542657 1074.42169,388.478737 1075.22186,388.409448 C1080.86689,388.165502 1085.46844,387.893377 1088.5,387.6 C1112.9,385.2 1135.7,382 1144,379.9 C1171.9,372.8 1193.7,352.2 1208.8,318.5 C1209.82483,316.212255 1210.89252,313.676972 1211.98976,310.936969 C1212.29468,310.225499 1212.60455,309.498322 1212.9,308.8 C1214.02191,306.369182 1214.8816,303.938364 1214.98873,303.14198 C1215.65422,301.348117 1216.32573,299.497453 1217.00062,297.59852 C1217.84716,295.566595 1218.98008,292.388873 1219.67176,289.884442 C1227.13297,267.792096 1234.58117,241.226967 1238.5,221.5 C1242.249,202.945616 1244.38295,188.99414 1245.46627,174.61697 C1245.51097,174.245552 1245.55554,173.87323 1245.6,173.5 C1246.04496,169.697613 1246.29357,162.328141 1246.34582,154.244324 C1246.37472,152.370493 1246.39247,150.458511 1246.4,148.5 C1246.40333,147.71 1246.40556,146.936556 1246.4066,146.17893 L1246.4071,144.684551 C1246.39136,123.80679 1245.39445,115.233333 1241.9,102.2 C1241.45992,100.538306 1240.97493,98.9215177 1240.44398,97.3484568 C1239.80262,95.2955365 1239.12476,93.5271695 1238.4,92 C1238.35543,91.9068098 1238.3107,91.8137804 1238.26581,91.7209117 C1232.88765,79.5082811 1224.23453,70.2255736 1211.70147,63.1921704 C1210.16277,62.3184875 1208.57287,61.4921252 1206.93137,60.7129813 C1204.33542,59.4633956 1201.59307,58.2940184 1198.7,57.2 C1168.5,45.9 1109.3,40.2 1033.8,41.3 Z" id="LogoGlassesFrame"></path>
        </g>
    </g>
</svg>
