<?xml version="1.0" encoding="UTF-8"?>
<svg width="1384px" height="433px" viewBox="0 0 1384 433" version="1.1" xmlns="http://www.w3.org/2000/svg" xmlns:xlink="http://www.w3.org/1999/xlink">
    <!-- Generator: Sketch 54.1 (76490) - https://sketchapp.com -->
    <title>glasses</title>
    <desc>Created with Sketch.</desc>
    <g id="Page-1" stroke="none" stroke-width="1" fill="none" fill-rule="evenodd">
        <g id="symbols" transform="translate(0.600000, 0.000000)">
            <g id="glasses-glare">
                <g id="frames" stroke-width="1" fill-rule="evenodd" fill="currentColor">
                    <path d="M303.4,431.9 C231.3,429.9 177.6,411.5 143.4,377 C117.2,350.6 107.3,325.9 87.8,238.8 C76.2,186.4 72.8,174.8 62.5,150.8 C46.6,113.5 40.5,103.2 20,78 C11.7,67.8 5.8,58.1 3.6,51 C1.2,43.5 -1.1,8.2 0.6,6.5 C3.5,3.5 87.1,0 151.8,0 C204.1,0 330.7,3.9 399.9,7.6 C462.8,10.9 524.9,16.2 576.9,22.5 C608.4,26.3 616.1,26.9 646.1,27.9 C698.8,29.7 748.5,27 811.9,19 C853.7,13.7 878.9,11.6 971.4,5.4 C1042.9,0.6 1072.1,0.2 1148.4,2.8 C1181.1,4 1224.8,5.2 1245.4,5.5 C1308.5,6.5 1375.9,9.6 1377.9,11.6 C1380.3,14 1382.6,26.2 1382.5,36.5 C1382.5,51.9 1378.3,65.1 1369.2,79 C1367.5,81.5 1356.2,93.4 1344,105.5 C1320.2,129.1 1317.3,132.9 1311.3,148.5 C1306.8,160.1 1303.3,174.2 1295.4,213.5 C1286.2,259.1 1281.3,280.4 1276,299.2 C1264.9,338.1 1252.4,362.4 1233.3,382.4 C1209.1,407.8 1181.7,417.9 1117.9,425 C1053.4,432.1 982.9,433.6 948.4,428.4 C913.2,423.2 879.7,411.1 855.4,394.9 C843.8,387.2 824.6,368.4 818.2,358.5 C804.1,336.6 787.1,293.2 775.4,248.5 C773.2,240.3 768.7,221.1 765.4,206 C756.3,164.3 751.9,150.9 742.9,136.5 C734.2,122.4 722.5,112.4 709.7,107.9 C693.9,102.3 665.8,106.1 650.7,115.9 C641.9,121.6 634.2,130.8 628.5,142.4 C621.2,157.3 617.2,172.8 607.9,222 C599.8,265 596.8,275.6 584.8,304.3 C571.2,336.9 560.3,356.7 546.3,373.9 C524.4,401.2 497.4,417.8 465.9,423.3 C456.8,425 425.3,428 395.9,430.1 C372.5,431.7 329.2,432.6 303.4,431.9 Z" fill-rule="nonzero"></path>
                </g>
                <g id="left-lense" stroke-width="1" fill-rule="evenodd" transform="translate(131.500000, 46.100000)">
                    <path d="M151.4,344.9 C127.1,342.7 107.5,338.6 96.5,333.4 C66.4,319.1 41.2,280.6 20.5,217 C8.1,179 1.2,142.8 0.2,110.4 C-0.7,80.1 2.2,62.4 11.1,44 C15.4,35.1 17.3,32.4 24.3,25.4 C30.7,19 34.2,16.4 40.9,13.2 C51.5,8 59.4,6.3 80.6,4.4 C144.1,-1.2 200.1,-1.4 253.9,3.9 C264.6,5 281.5,6.5 291.4,7.4 C345.6,12.2 376.2,20.2 396.5,35.2 C414.9,48.8 423.3,71.6 423.2,107.9 C423.2,122 422.5,128.4 419,151.9 C408.8,219.5 402.6,245.6 391.5,267.6 C386,278.7 371.6,298 362.3,307 C342.1,326.3 316.6,335.8 271.4,340.9 C236.5,344.8 173.6,346.9 151.4,344.9 Z" id="glare" fill="#EAEAEA" fill-rule="nonzero"></path>
                    <path d="M160.8,345.5 C160.6,345.2 156.4,344.8 151.4,344.4 C140.1,343.6 138,343.4 124.1,340.9 C101.8,336.9 91.8,332.5 77,320 C71.5,315.3 56.1,296.7 53.3,291.4 C52.5,289.8 50.7,286.6 49.4,284.4 C46.6,279.8 38.2,263.1 35.7,257.3 C34.8,255.2 33.1,251.3 32,248.7 C30.8,246.1 29.9,243.3 29.9,242.5 C29.9,241.7 29.5,240.7 28.9,240.4 C28.4,240.1 27.9,239 27.9,238.1 C27.9,237.2 27.3,235.2 26.5,233.8 C25,230.9 20.8,218.5 18.4,209.9 C17.5,206.9 16.4,203.1 16,201.4 C15.1,198.3 9.6,176.6 7.9,169.4 C7,165.4 4,149.7 3.4,144.9 C0.8,126.7 0.4,121.7 0.4,102.9 C0.5,83.2 0.8,78.6 3.4,66.8 C7.3,49.2 13.8,36.1 24,25.9 C38.5,11.2 49.9,7 82.5,4.4 C119.3,1.4 139.8,0.6 173.9,0.5 C207.9,0.5 228.9,1.5 255.9,4.4 C262.5,5.1 275.1,6.2 288.4,7.3 C301,8.4 306.5,8.9 309.9,9.4 C311.8,9.6 315.4,10.1 317.9,10.4 C324.3,11.1 356.2,17 357.1,17.5 C357.5,17.8 360.4,18.7 363.5,19.5 C369.5,21 372.1,22.1 382.9,27.4 C392.4,32 396.7,35 402.8,41 C412.1,50.4 416.6,59.4 419.8,75.2 C424.3,97.3 424.7,112.8 421.5,132.6 C421.1,134.7 420.7,137.8 420.4,139.4 C420.2,141.1 419.1,148.6 418,156.1 C416.9,163.6 415.7,171.3 415.5,173.1 C415.1,176.1 412.3,193.7 411.5,198.4 C410.4,204.7 407.4,217.9 404.8,227.9 C399.8,247.8 398.7,251.4 397.8,252.4 C397.3,252.9 396.9,254 396.9,254.9 C396.9,257.4 388.9,272.7 383.4,280.8 C372.7,296.6 362.1,308 350.9,316.1 C344.2,320.9 342.9,321.7 336.9,324.5 C328.3,328.5 327.8,328.7 321.4,330.8 C304.8,336.1 280,340.3 253.4,342.4 C244.1,343.1 230.9,344.1 225.9,344.5 C218.8,345 161.2,345.9 160.8,345.5 Z M227.2,327 C245.3,326.5 260.3,325.9 260.5,325.6 C261,325.1 86.8,28.6 84.8,26.4 C83.3,24.8 68.1,28.5 60.1,32.4 C27.5,48.6 16.4,90.9 27.5,156.8 C33.9,194.9 48.6,239.9 64.1,268.9 C75.2,289.8 89.9,307.5 102.2,314.8 C116.6,323.3 127.3,325.7 156.9,326.8 C185.5,327.9 190.2,327.9 227.2,327 Z" id="backdrop" fill="#FFFFFF" fill-rule="nonzero"></path>
                </g>
                <path d="M976.4,389 C931,384.7 907.7,374.8 888.1,351.3 C855.7,312.3 829.2,230.2 826.8,160.5 C825.6,127.2 831.6,111.1 853.1,89.6 C866.6,76.1 885.4,64.4 905,57.1 C931.8,47.3 973.4,42.2 1033.2,41.3 C1108.7,40.2 1167.9,45.9 1198.1,57.2 C1221.9,66.2 1235.5,80.3 1241.3,102.2 C1245,116 1245.9,124.8 1245.8,148.5 C1245.7,174.5 1243.8,192.3 1237.9,221.5 C1232,251.2 1218.1,296.4 1208.2,318.5 C1193.1,352.2 1171.3,372.8 1143.4,379.9 C1135.1,382 1112.3,385.2 1087.9,387.6 C1069.3,389.4 991.6,390.4 976.4,389 Z" id="glare" fill="#EAEAEA" fill-rule="nonzero"></path>
                <path d="M985.3,389.6 C985.1,389.4 981.1,388.9 976.4,388.5 C967.3,387.8 966.9,387.8 955.4,386 C927.7,381.9 909,373.1 893.7,357 C887.1,350 877.9,338.4 875.9,334.5 C875,332.9 873.2,329.7 871.8,327.5 C869.6,323.9 863.6,311.8 859.9,303.5 C859.2,301.9 857.7,298.5 856.6,296 C855.4,293.5 853.5,288.4 852.3,284.5 C851.1,280.7 849.8,277 849.3,276.5 C848.9,275.9 847.6,272.1 846.4,268 C845.3,263.9 843.9,259.2 843.4,257.5 C840.2,246.3 834.9,223 832.4,209 C828.2,184.7 827.3,176.7 827,157 C826.4,128.4 830.9,115.4 848.6,94.4 C859,81.9 881.7,66.6 900.9,59 C914,53.8 939,48 955.9,46.4 C958.7,46.2 961.8,45.7 963,45.5 C964.1,45.2 968,44.8 971.5,44.5 C975,44.2 979.3,43.7 980.9,43.5 C992,42.1 1013.1,41.5 1046.9,41.5 C1085.9,41.5 1105.4,42.2 1128.9,44.5 C1131.7,44.8 1136.4,45.3 1139.4,45.5 C1160.6,47.6 1186.3,52.8 1199.9,58 C1217.6,64.6 1230.1,75.9 1237.8,92 C1240.6,97.9 1242.7,107.4 1244.7,123 C1246,132.9 1246.1,164.1 1245,173.5 C1240.7,209.6 1235.3,237.2 1227.9,260.5 C1227.2,262.7 1225.9,267.2 1224.9,270.5 C1223.9,273.8 1222.5,278.2 1221.8,280.3 C1221,282.3 1219.9,286.1 1219.4,288.6 C1218.8,291.2 1217.4,295.2 1216.4,297.6 C1215.3,299.9 1214.4,302.4 1214.4,303 C1214.4,303.6 1213.5,306.2 1212.3,308.8 C1211.2,311.4 1209.9,314.4 1209.4,315.5 C1201.1,335 1189.5,351.8 1177.2,362.1 C1163.9,373.3 1147.1,380.3 1128.1,382.5 C1125.8,382.8 1120.3,383.5 1115.9,384.1 C1103.5,385.8 1103.2,385.8 1096.9,386.4 C1089.4,387.1 1078.3,388.1 1072.4,388.6 C1065.9,389.2 985.9,390.1 985.3,389.6 Z M1068.9,367 C1084.7,365.6 1107.3,363 1111.1,362.2 L1114.4,361.5 L1030.3,218 C984.1,139.1 945.8,74.1 945.4,73.6 C944.3,72.5 931.7,75.3 919.9,79.2 C885.1,90.8 855.9,117.8 850.3,143.5 C847.5,156.7 849.4,190.2 854.5,216.8 C864.6,269.9 883.9,315.8 905.8,338.8 C916.6,350.1 926.2,356.3 940.1,360.9 C948.3,363.5 968.3,366.8 982.6,368 C996.2,369 1053.6,368.4 1068.9,367 Z" id="backdrop" fill="#FFFFFF" fill-rule="nonzero"></path>
                <g id="right-lense" stroke-width="1" fill-rule="evenodd" transform="translate(826.900000, 41.500000)"></g>
            </g>
        </g>
    </g>
</svg>
